<svg width="160" height="160" viewBox="0 0 160 160" fill="none" xmlns="http://www.w3.org/2000/svg" role="img" aria-labelledby="title desc">
  <title id="title">Cite Validator logo</title>
  <desc id="desc">A monogram CV with an academic book, citation marks, magnifier, and verification check.</desc>
  <rect width="160" height="160" rx="34" fill="#12343B"/>
  <path d="M35 42C35 37.5817 38.5817 34 43 34H75C80.5228 34 85 38.4772 85 44V117C85 120.866 81.866 124 78 124H43C38.5817 124 35 120.418 35 116V42Z" fill="#F7F1E3"/>
  <path d="M85 44C85 38.4772 89.4772 34 95 34H117C121.418 34 125 37.5817 125 42V111C125 115.418 121.418 119 117 119H92C88.134 119 85 115.866 85 112V44Z" fill="#E9F4F1"/>
  <path d="M85 44V119" stroke="#0F5960" stroke-width="4" stroke-linecap="round"/>
  <path d="M48 54H72M48 68H70M48 82H73M97 54H113M97 68H116M97 82H110" stroke="#486069" stroke-width="4" stroke-linecap="round"/>
  <path d="M55 101C55 95.4772 59.4772 91 65 91H67V103H55V101Z" fill="#C8553D"/>
  <path d="M101 101C101 95.4772 105.477 91 111 91H113V103H101V101Z" fill="#C8553D"/>
  <circle cx="103" cy="103" r="26" fill="#F7FBFA" fill-opacity="0.18" stroke="#F7FBFA" stroke-width="8"/>
  <path d="M121 122L136 137" stroke="#F7FBFA" stroke-width="10" stroke-linecap="round"/>
  <path d="M91 101L101 111L119 91" stroke="#E0B657" stroke-width="8" stroke-linecap="round" stroke-linejoin="round"/>
  <path d="M42 132H118" stroke="#E0B657" stroke-width="6" stroke-linecap="round"/>
</svg>
